<svg xmlns="http://www.w3.org/2000/svg" viewBox="0 0 64 64" fill="none">
  <defs>
    <linearGradient id="bucket-gradient" x1="0%" y1="0%" x2="100%" y2="100%">
      <stop offset="0%" style="stop-color:#8B5CF6"/>
      <stop offset="100%" style="stop-color:#EC4899"/>
    </linearGradient>
  </defs>
  <!-- Background circle -->
  <circle cx="32" cy="32" r="30" fill="url(#bucket-gradient)"/>
  <!-- Paint bucket icon -->
  <path d="M20 36c-3.32 0-6 2.68-6 6 0 2.62-2.32 4-4 4 1.84 2.44 4.98 4 8 4 4.42 0 8-3.58 8-8 0-3.32-2.68-6-6-6zm27.42-18.74l-2.68-2.68a1.992 1.992 0 00-2.82 0L24 32.5 29.5 38l17.92-17.92a1.992 1.992 0 000-2.82z" fill="white"/>
</svg>
